<svg width="115px" version="1.1" id="Слой_1" xmlns="http://www.w3.org/2000/svg" xmlns:xlink="http://www.w3.org/1999/xlink" x="0px" y="0px"
     viewBox="0 0 359 56" style="enable-background:new 0 0 359 56;" xml:space="preserve">
<style type="text/css">
	.st0{fill:none;stroke:#FFFFFF;stroke-width:5.5;stroke-linecap:round;stroke-miterlimit:10;}
</style>
    <g>
	<g>
		<path d="M42.96,14.8H28.41V53H14.85V14.8H0.29V3.3h42.67V14.8z"/>
        <path d="M71.43,37.02h-4.97V53H52.9V3.3h20.38c12,0,19.45,7.38,19.45,16.83c0,5.96-2.91,11.08-8.02,14.06L95.57,53H80.66
			L71.43,37.02z M66.46,25.52h6.32c5.82,0,7.67-2.2,7.67-5.4c0-3.12-1.85-5.33-7.67-5.33h-6.32V25.52z"/>
        <path d="M147.47,3.3l-17.75,31.52V53h-13.56V34.82L98.41,3.3h15.26l9.23,18.6l9.3-18.6H147.47z"/>
        <path d="M188.01,38.37l6.67,9.51c-4.97,3.83-10.44,6.18-16.83,6.18c-16.12,0-28.26-11.57-28.26-25.92s12.14-25.99,28.26-25.99
			c6.39,0,11.86,2.34,16.83,6.25l-6.67,9.44c-3.05-2.27-6.46-3.48-10.15-3.48c-8.52,0-14.98,6.04-14.98,13.77
			c0,7.67,6.46,13.77,14.98,13.77C181.55,41.92,184.96,40.57,188.01,38.37z"/>
        <path d="M310.63,28.15c0,13.35-9.09,24.85-27.62,24.85h-19.6V3.3h19.6C301.61,3.3,310.63,14.8,310.63,28.15z M297.99,28.15
			c0-7.38-4.54-13.35-15.9-13.35h-5.11v26.7h5.11C293.45,41.5,297.99,35.46,297.99,28.15z"/>
        <path d="M358.41,41.5V53h-37.13V3.3h35.93v11.5h-22.36v7.6h20.16v11.5h-20.16v7.6H358.41z"/>
	</g>
        <circle cx="227.28" cy="28.25" r="27"/>
        <g>
		<path class="st0" d="M234.97,18.11c3.26,2.38,5.38,6.22,5.38,10.57c0,7.22-5.85,13.07-13.07,13.07c-7.22,0-13.07-5.85-13.07-13.07
			c0-4.32,2.09-8.14,5.32-10.52"/>
            <line class="st0" x1="227.28" y1="12.75" x2="227.28" y2="26.13"/>
	</g>
</g>
</svg>